<svg xmlns="http://www.w3.org/2000/svg" xmlns:xlink="http://www.w3.org/1999/xlink" id="Layer_1" x="0px" y="0px" viewBox="0 0 1920 498.38" style="enable-background:new 0 0 1920 498.38;" xml:space="preserve"><style type="text/css">	.st0{fill:#3497BA;}	.st1{fill:#36F493;}	.st2{fill:#003D62;}</style><path class="st0" d="M248.62,257.8c0-35.64,18.68-66.92,46.78-84.59c-15.38-9.67-33.58-15.27-53.09-15.27 c-55.15,0-99.86,44.71-99.86,99.86s44.71,99.86,99.86,99.86c19.51,0,37.71-5.6,53.09-15.27C267.3,324.72,248.62,293.44,248.62,257.8 z"></path><path class="st1" d="M348.48,157.94c-19.51,0-37.71,5.6-53.09,15.27c28.1,17.67,46.78,48.95,46.78,84.59 c0,35.64-18.68,66.92-46.78,84.59c15.38,9.67,33.58,15.27,53.09,15.27c55.15,0,99.86-44.71,99.86-99.86S403.64,157.94,348.48,157.94 z"></path><rect x="253.38" y="253.8" class="st2" width="9.97" height="9.97"></rect><rect x="271.48" y="253.8" class="st0" width="9.97" height="9.97"></rect><rect x="307.69" y="253.8" class="st0" width="9.97" height="9.97"></rect><rect x="325.79" y="253.8" class="st1" width="9.97" height="9.97"></rect><rect x="253.38" y="237.29" class="st1" width="9.97" height="9.97"></rect><rect x="289.58" y="237.29" class="st2" width="9.97" height="9.97"></rect><rect x="307.69" y="237.29" class="st1" width="9.97" height="9.97"></rect><rect x="271.48" y="220.79" class="st0" width="9.97" height="9.97"></rect><rect x="307.69" y="220.79" class="st2" width="9.97" height="9.97"></rect><rect x="289.58" y="204.28" class="st1" width="9.97" height="9.97"></rect><rect x="289.58" y="187.77" class="st2" width="9.97" height="9.97"></rect><rect x="307.69" y="204.28" class="st0" width="9.97" height="9.97"></rect><rect x="271.48" y="201.72" class="st2" width="9.97" height="9.97"></rect><rect x="325.79" y="270.31" transform="matrix(-1 -1.224647e-16 1.224647e-16 -1 661.5488 550.5931)" class="st2" width="9.97" height="9.97"></rect><rect x="307.69" y="270.31" transform="matrix(-1 -1.224647e-16 1.224647e-16 -1 625.3436 550.5931)" class="st0" width="9.97" height="9.97"></rect><rect x="271.48" y="270.31" transform="matrix(-1 -1.224647e-16 1.224647e-16 -1 552.9333 550.5931)" class="st2" width="9.97" height="9.97"></rect><rect x="307.69" y="286.82" transform="matrix(-1 -1.224647e-16 1.224647e-16 -1 625.3436 583.6051)" class="st1" width="9.97" height="9.97"></rect><rect x="271.48" y="286.82" transform="matrix(-1 -1.224647e-16 1.224647e-16 -1 552.9333 583.6051)" class="st0" width="9.97" height="9.97"></rect><rect x="307.69" y="303.32" transform="matrix(-1 -1.224647e-16 1.224647e-16 -1 625.3436 616.6171)" class="st2" width="9.97" height="9.97"></rect><rect x="289.58" y="303.32" transform="matrix(-1 -1.224647e-16 1.224647e-16 -1 589.1385 616.6171)" class="st1" width="9.97" height="9.97"></rect><rect x="289.58" y="270.31" transform="matrix(-1 -1.224647e-16 1.224647e-16 -1 589.1385 550.5931)" class="st2" width="9.97" height="9.97"></rect><rect x="289.58" y="319.83" transform="matrix(-1 -1.224647e-16 1.224647e-16 -1 589.1385 649.6292)" class="st2" width="9.97" height="9.97"></rect><g>	<path class="st2" d="M478.32,162.13c16.21-2.63,37.3-4.19,59.37-4.19c36.95,0,61.08,6.82,79.74,20.9  c20.23,15.1,32.93,38.85,32.93,73.27c0,37.32-13.5,63.12-32.2,78.89c-20.48,17.07-51.86,25.22-89.81,25.22  c-22.88,0-39.19-1.37-50.01-2.87V162.13z M522.29,321.04c3.84,0.72,9.99,0.76,15.36,0.76c39.88,0.34,66.09-21.69,66.09-68.24  c0.09-40.46-23.6-61.73-61.45-61.73c-9.63,0-16.1,0.82-20,1.68V321.04z"></path>	<path class="st2" d="M746.73,354.19l-2.59-14.05h-0.94c-9.22,11.26-23.65,17.23-40.39,17.23c-28.79,0-45.71-20.67-45.71-43.26  c0-36.84,32.95-54.3,82.99-54.24v-1.8c0-7.51-4.04-18.26-25.9-18.21c-14.41,0-29.56,4.9-38.97,10.56l-8.09-28.14  c9.85-5.63,29.12-12.67,54.96-12.67c47.08,0,61.97,27.83,61.97,61.03v49.32c0,13.49,0.72,26.31,2.25,34.25H746.73z M741.41,287.31  c-23.13-0.13-41.01,5.45-41.01,22.29c0,11.39,7.45,16.93,17.45,16.93c10.75,0,19.85-7.18,22.74-16.25  c0.67-2.28,0.82-5.01,0.82-7.51V287.31z"></path>	<path class="st2" d="M853.98,172.44v40.33h31.65v32.43h-31.65v51.24c0,17.05,4.24,24.91,17.35,24.91c5.67,0,10.04-0.6,13.07-1.31  l0.35,33.4c-5.67,2.05-16.17,3.78-28.48,3.78c-14.21,0-26.07-4.94-33.14-12.27c-8.16-8.38-12.15-21.83-12.15-41.91V245.2h-18.79  v-32.43h18.79v-30.38L853.98,172.44z"></path>	<path class="st2" d="M979.89,354.19l-2.59-14.05h-0.94c-9.22,11.26-23.66,17.23-40.39,17.23c-28.79,0-45.71-20.67-45.71-43.26  c0-36.84,32.96-54.3,82.99-54.24v-1.8c0-7.51-4.04-18.26-25.9-18.21c-14.41,0-29.56,4.9-38.97,10.56l-8.09-28.14  c9.85-5.63,29.12-12.67,54.96-12.67c47.08,0,61.97,27.83,61.97,61.03v49.32c0,13.49,0.72,26.31,2.25,34.25H979.89z M974.56,287.31  c-23.13-0.13-41.01,5.45-41.01,22.29c0,11.39,7.45,16.93,17.45,16.93c10.75,0,19.86-7.18,22.74-16.25  c0.67-2.28,0.82-5.01,0.82-7.51V287.31z"></path>	<path class="st2" d="M1086.02,159.46v74.9h72.6v-74.9h44.03v194.73h-44.03V272.7h-72.6v81.49h-44.03V159.46H1086.02z"></path>	<path class="st2" d="M1308.96,354.19l-2.59-14.05h-0.94c-9.22,11.26-23.66,17.23-40.39,17.23c-28.79,0-45.71-20.67-45.71-43.26  c0-36.84,32.95-54.3,82.99-54.24v-1.8c0-7.51-4.04-18.26-25.9-18.21c-14.41,0-29.56,4.9-38.97,10.56l-8.09-28.14  c9.85-5.63,29.12-12.67,54.96-12.67c47.08,0,61.97,27.83,61.97,61.03v49.32c0,13.49,0.72,26.31,2.25,34.25H1308.96z   M1303.63,287.31c-23.13-0.13-41.01,5.45-41.01,22.29c0,11.39,7.45,16.93,17.45,16.93c10.75,0,19.85-7.18,22.74-16.25  c0.67-2.28,0.82-5.01,0.82-7.51V287.31z"></path>	<path class="st2" d="M1398.81,212.77l19.02,65.76c3.44,11.93,5.89,23.07,8.09,34.39h0.94c2.18-11.67,4.6-22.24,7.82-34.39  l18.14-65.76h46.23l-52.65,141.42h-43.86l-51.41-141.42H1398.81z"></path>	<path class="st2" d="M1537.13,297.62c1.31,18.24,19.34,26.91,39.85,26.91c14.87,0,27.05-1.99,38.91-5.99l5.93,29.75  c-14.63,5.97-32.28,8.94-51.23,8.94c-47.9,0-75.41-27.9-75.41-71.97c0-35.93,22.41-75.66,71.28-75.66  c45.83,0,63.14,35.62,63.14,70.61c0,7.66-0.8,14.15-1.57,17.41H1537.13z M1588.74,267.5c0.08-10.59-4.65-28.66-24.66-28.66  c-18.58,0-26.1,16.97-27.32,28.66H1588.74z"></path>	<path class="st2" d="M1644.24,257.94c0-17.61-0.55-32.5-1.16-45.17h38.13l2.04,19.6h0.92c5.71-9.11,20.09-22.77,43.7-22.77  c28.88,0,50.61,19.26,50.61,60.89v83.71h-44.03v-78.38c0-18.22-6.5-30.69-22.36-30.69c-12.1,0-19.25,8.47-22.29,16.6  c-1.12,2.75-1.54,6.93-1.54,10.87v81.59h-44.03V257.94z"></path></g></svg>