<?xml version="1.0" encoding="UTF-8"?>
<!DOCTYPE svg PUBLIC "-//W3C//DTD SVG 1.1//EN" "http://www.w3.org/Graphics/SVG/1.1/DTD/svg11.dtd">
<!-- Creator: CorelDRAW X6 -->
<svg xmlns="http://www.w3.org/2000/svg" xml:space="preserve" width="3.33333in" height="0.516661in" version="1.1" style="shape-rendering:geometricPrecision; text-rendering:geometricPrecision; image-rendering:optimizeQuality; fill-rule:evenodd; clip-rule:evenodd"
viewBox="0 0 3333 517"
 xmlns:xlink="http://www.w3.org/1999/xlink">
 <defs>
  <style type="text/css">
   <![CDATA[
    .fil0 {fill:white}
    .fil1 {fill:url(#id0)}
   ]]>
  </style>
  <linearGradient id="id0" gradientUnits="userSpaceOnUse" x1="520.76" y1="542.413" x2="1041.86" y2="112.823">
   <stop offset="0" style="stop-color:#15B0F7"/>
   <stop offset="1" style="stop-color:#36F686"/>
  </linearGradient>
 </defs>
 <g id="Layer_x0020_1">
  <metadata id="CorelCorpID_0Corel-Layer"/>
  <g id="_127668536">
   <path class="fil0" d="M95 38l0 244 -61 58 0 -302c0,-15 14,-28 30,-28 17,0 30,13 30,28l0 0z"/>
   <path class="fil0" d="M337 477l0 -152c0,-67 -55,-121 -121,-121 -67,0 -121,55 -121,121l0 152c0,17 -14,30 -30,30 -17,0 -30,-14 -30,-30l0 -152c0,-100 82,-182 182,-182 100,0 182,82 182,182l0 152c0,17 -14,30 -30,30 -17,0 -30,-14 -30,-30l0 0z"/>
   <path class="fil0" d="M1940 477c0,17 14,30 30,30 17,0 30,-14 30,-30l0 -304c0,-17 -14,-30 -30,-30 -17,0 -30,14 -30,30l0 303z"/>
   <path class="fil0" d="M2001 325c-20,0 -41,0 -61,0 0,-100 82,-182 182,-182 66,0 124,35 156,88 8,14 3,33 -11,41 -14,8 -33,3 -42,-11 -22,-34 -60,-57 -103,-57 -67,0 -121,55 -121,121l0 0z"/>
   <path class="fil0" d="M1469 477l0 -152c0,-67 -55,-121 -121,-121 -67,0 -121,55 -121,121l0 152c0,17 -14,30 -30,30 -17,0 -30,-14 -30,-30l0 -152c0,-100 82,-182 182,-182 100,0 182,82 182,182l0 152c0,17 -14,30 -30,30 -17,0 -30,-14 -30,-30l0 0z"/>
   <path class="fil0" d="M1226 174l0 123 -61 45 0 -168c0,-17 14,-30 30,-30 17,0 30,14 30,30l0 0z"/>
   <path class="fil0" d="M1856 174c0,-17 14,-31 30,-31 17,0 30,14 30,30l0 304c0,17 -14,30 -30,30 -17,0 -30,-14 -30,-30l0 -303z"/>
   <path class="fil0" d="M1838 475c-30,21 -65,33 -104,33 -100,0 -182,-82 -182,-182 0,-100 82,-182 182,-182 100,0 182,82 182,182 -19,0 -41,0 -61,0 -1,-67 -55,-121 -122,-121 -67,0 -121,55 -121,121 0,67 55,121 121,121 25,0 49,-8 69,-22 14,-10 33,-7 43,7 10,14 6,33 -8,43l0 0z"/>
   <path class="fil0" d="M2366 326c0,67 55,121 121,121 25,0 49,-8 69,-22 14,-10 33,-7 43,7 10,14 6,33 -8,43 -30,21 -65,33 -104,33 -100,0 -182,-82 -182,-182l61 0z"/>
   <path class="fil0" d="M2367 40l-2 289 -59 13 0 -302c0,-15 14,-28 30,-28 17,0 30,13 30,28l0 0z"/>
   <path class="fil0" d="M2475 208l-163 1 2 -62 161 0c15,0 28,14 28,30 0,17 -13,30 -28,30l0 0z"/>
   <path class="fil0" d="M2866 229c6,-5 6,-7 0,-10l5 2c-34,-19 -77,-22 -114,-4 -60,29 -85,102 -56,162 29,60 102,85 162,56 23,-11 41,-29 52,-50 8,-15 27,-20 41,-12 15,8 20,27 12,42 -18,32 -45,58 -79,75 -90,44 -199,6 -243,-84 -44,-90 -6,-199 84,-243 66,-32 142,-21 196,23 25,24 27,33 11,62l-160 156c-11,11 -30,10 -41,-2 -12,-12 -12,-31 -1,-41l132 -130z"/>
   <path class="fil0" d="M2996 37l0 443c0,2 0,-5 0,-3 0,16 13,30 30,30 16,0 30,-13 30,-30l0 -80 50 -48c1,-1 2,-1 4,-1 12,13 24,26 36,39l105 113c13,6 20,8 33,4 8,-4 14,-11 16,-21 1,-11 1,-18 -11,-30l-135 -151 109 -109c3,-4 7,-10 8,-15 3,-24 -16,-40 -39,-36 -13,6 -21,16 -31,27l-128 129c-5,4 -9,8 -13,12 -1,1 -1,1 -1,2l-1 -275c-1,-16 -14,-30 -30,-30 -16,0 -30,13 -30,29l0 0z"/>
   <path class="fil1" d="M1121 314c-3,-35 -18,-66 -39,-91 -22,-25 -52,-43 -86,-51 -2,0 -3,-2 -3,-4 0,-1 0,-1 0,-2 0,-1 0,-1 1,-2 1,-2 2,-2 5,-2 36,8 68,27 91,54 23,26 38,60 42,97 3,1 5,3 7,5 2,2 3,5 3,8 0,3 -1,6 -3,8 -2,2 -4,4 -7,5 -3,39 -18,74 -42,101 -24,28 -58,47 -95,55 -2,0 -4,-1 -5,-2 0,-1 -1,-1 -1,-2 0,-1 0,-1 0,-2 0,-2 1,-3 3,-4l0 0c35,-7 67,-25 89,-51 23,-26 37,-59 40,-95 -3,-1 -5,-3 -6,-5 -2,-2 -3,-5 -3,-8 0,-3 1,-6 2,-8l0 0c1,-2 4,-4 6,-5zm-123 -151l0 0zm-217 170c1,0 3,-1 3,-1 1,-1 1,-2 1,-4l0 0c0,-1 -1,-3 -1,-3 -1,-1 -2,-1 -4,-1 -1,0 -3,1 -3,1 -1,1 -1,2 -1,4 0,1 1,3 1,3 1,1 2,1 4,1zm-4 -18c1,0 2,0 3,0l0 0c1,0 2,0 3,0l0 0c1,0 2,0 2,1l77 -82 0 0 0 0c6,-6 13,-12 20,-17 7,-5 15,-9 23,-13 8,-4 17,-6 26,-8 9,-2 18,-3 27,-3 14,0 28,2 41,6 13,4 26,10 37,17 1,-1 2,-1 3,-2 1,0 3,-1 4,-1 4,0 7,1 10,4 3,2 4,6 4,10 0,4 -1,7 -4,10 -2,3 -6,4 -10,4 -4,0 -7,-1 -10,-4 -3,-2 -4,-6 -4,-10 0,-1 0,-1 0,-2l0 0c0,-1 0,-1 0,-2 -10,-7 -22,-12 -34,-16 -12,-3 -24,-5 -38,-5 -8,0 -17,1 -25,3 -8,2 -16,4 -24,8 -8,3 -15,7 -22,12 -7,5 -13,10 -19,16l0 0 0 0 0 0 -1 1 -1 1 -1 1 0 0 -73 78c0,1 1,2 1,3 0,1 0,2 0,3 0,4 -1,7 -4,10 -2,3 -6,4 -10,4 -1,0 -2,0 -3,0 -1,0 -2,0 -2,-1l-77 82 0 0 0 0c-6,6 -13,12 -21,17 -7,5 -15,9 -24,13 -8,4 -17,6 -26,8 -9,2 -18,3 -27,3 -14,0 -28,-2 -41,-6 -13,-4 -26,-10 -37,-17 -1,1 -2,1 -3,2 -1,0 -3,1 -4,1l0 0 0 0 0 0c-4,0 -7,-1 -10,-4 -3,-2 -4,-6 -4,-10l0 0 0 0 0 0c0,-4 1,-7 4,-10 2,-3 6,-4 10,-4 4,0 7,1 10,4 3,2 4,6 4,10 0,1 0,1 0,2 0,1 0,1 0,2 10,7 22,12 34,16 12,3 24,5 38,5 8,0 17,-1 25,-3 8,-2 16,-4 24,-8 8,-3 15,-7 22,-12 7,-5 13,-10 19,-16l0 0 0 0 0 0 0 0 0 0 0 0 1 -1 1 -1 1 -1 1 -1 0 0 73 -78c0,-1 -1,-2 -1,-3 -2,-7 3,-15 10,-17zm253 -88l0 0zm-253 115l0 0zm-247 88l0 0zm161 -14l0 0zm-251 -74c3,35 18,67 40,92 23,25 53,43 88,50 2,0 3,2 3,4 0,1 0,1 0,2 0,1 0,1 -1,2 -1,1 -2,2 -4,2 -37,-7 -69,-26 -94,-53 -24,-27 -40,-61 -43,-98 -3,-1 -5,-3 -7,-5 -2,-2 -3,-5 -3,-8 0,-3 1,-6 3,-8 2,-2 4,-4 7,-5 3,-39 18,-74 42,-101 24,-28 58,-47 95,-55 2,0 4,1 5,2 0,1 1,1 1,2 0,1 0,1 0,2 0,2 -1,3 -3,4l0 0c-35,7 -67,25 -89,51 -23,26 -37,59 -40,95 3,1 5,3 6,5 2,2 3,5 3,8 0,3 -1,6 -2,8 -1,2 -4,4 -6,5zm166 -169c-2,1 -5,2 -8,2 -4,0 -7,-1 -10,-4 -3,-2 -4,-6 -4,-10 0,-4 1,-7 4,-10 2,-3 6,-4 10,-4 3,0 6,1 8,3 2,2 4,4 5,7 18,1 35,5 51,11 16,6 32,15 45,27 5,4 9,8 14,13l2 2 18 18c1,0 2,-1 3,-1 1,0 2,0 3,0 4,0 7,1 10,4 3,2 4,6 4,10 0,4 -1,7 -4,10 -2,3 -6,4 -10,4 -4,0 -7,-1 -10,-4 -3,-2 -4,-6 -4,-10 0,-1 0,-2 0,-3 0,-1 0,-2 1,-2l-21 -21 0 0c-1,-1 -2,-2 -4,-3 -1,-1 -2,-2 -4,-3 -13,-12 -28,-22 -45,-28 -16,-7 -34,-11 -51,-12 -1,2 -3,4 -5,6zm102 22l0 0zm-1 13l0 0zm-109 -41c1,0 3,-1 3,-1 1,-1 1,-2 1,-4 0,-1 -1,-3 -1,-3l0 0c-1,-1 -2,-1 -4,-1 -1,0 -3,1 -3,2 -1,1 -1,2 -1,4 0,1 1,3 2,3 1,1 2,1 4,1zm9 337c-2,2 -5,3 -8,3 -4,0 -7,-1 -10,-4 -3,-2 -4,-6 -4,-10 0,-4 1,-7 4,-10 2,-3 6,-4 10,-4 3,0 6,1 8,2 2,1 4,3 5,6 20,-1 38,-6 56,-14 18,-8 34,-19 47,-33l30 -32c0,-1 0,-1 -1,-2 0,-1 0,-2 0,-3l0 0 0 0 0 0c0,-4 1,-7 4,-10 2,-3 6,-4 10,-4l0 0 0 0 0 0c1,0 2,0 2,0 1,0 1,0 2,0l18 -20 0 0 100 -107c0,-1 -1,-2 -1,-2 0,-1 0,-2 0,-3 0,-4 1,-7 4,-10 2,-3 6,-4 10,-4l0 0 0 0c4,0 7,1 10,4 3,2 4,6 4,10l0 0 0 0 0 0c0,4 -1,7 -4,10 -2,3 -6,4 -10,4l0 0 0 0 0 0c-1,0 -2,0 -3,0 -1,0 -2,-1 -3,-1l-106 113 -11 12c1,1 1,2 1,3 0,1 1,2 1,4 0,4 -1,7 -4,10 -2,3 -6,4 -10,4 -1,0 -2,0 -3,0l0 0c-1,0 -2,-1 -3,-1l-30 32 0 0c-15,15 -32,27 -51,36 -19,9 -39,14 -60,15 -1,3 -3,5 -5,7zm286 -261l0 0zm-135 173l0 0zm-159 82l0 0 0 0c1,0 3,-1 3,-1 1,-1 1,-2 1,-4l0 0c0,-1 -1,-3 -1,-3 -1,-1 -2,-1 -4,-1 -1,0 -3,1 -3,1 -1,1 -1,2 -1,4 0,1 1,3 1,3 1,1 2,1 4,1l0 0zm104 -255c-2,3 -6,4 -10,4 -4,0 -7,-1 -10,-4 -3,-2 -4,-6 -4,-10l0 0c0,-1 0,-2 0,-3 0,-1 0,-2 1,-2 -4,-3 -9,-7 -13,-9 -5,-3 -10,-6 -15,-8 -8,-4 -17,-6 -26,-8 -9,-2 -18,-3 -27,-3 -9,0 -18,1 -27,3 -9,2 -17,5 -25,9 -1,0 -2,1 -3,0 -1,0 -2,-1 -3,-2l0 0c-1,-1 -1,-1 -1,-2 0,-1 0,-1 0,-2 0,-1 0,-1 1,-2 0,-1 1,-1 2,-1 9,-4 18,-7 27,-9 9,-2 19,-3 29,-3 10,0 20,1 29,3 10,2 19,5 28,9 6,2 11,5 16,9 5,3 10,7 15,10 1,0 2,-1 3,-1 1,0 2,0 3,0 4,0 7,1 10,4 3,2 4,6 4,10 0,4 -1,7 -4,10zm-162 -32l0 0zm0 0l0 0zm152 28l0 0c1,0 3,-1 3,-1 1,-1 1,-2 1,-4l0 0 0 0 0 0c0,-1 -1,-3 -1,-3 -1,-1 -2,-1 -4,-1 -1,0 -3,1 -3,1 -1,1 -1,2 -1,4 0,1 1,3 1,3 1,1 2,1 4,1l0 0zm0 0l0 0zm-258 97l0 0c1,0 3,-1 4,-2 1,-1 1,-2 1,-4l0 0 0 0c0,-1 -1,-3 -2,-4 -1,-1 -2,-1 -4,-1 -1,0 -3,1 -4,2 -1,1 -1,2 -1,4 0,1 1,3 2,4 1,1 2,1 4,1l0 0zm0 0l0 0zm5 -5l0 0zm-5 -5l0 0zm242 86c-2,3 -6,4 -10,4 -4,0 -7,-1 -10,-4 -3,-2 -4,-6 -4,-10 0,-4 1,-7 4,-10 2,-3 6,-4 10,-4 1,0 2,0 3,0 1,0 2,1 3,1l106 -113 11 -12c-1,-1 -1,-2 -1,-3l0 0c0,-1 -1,-2 -1,-4l0 0c0,-4 1,-7 4,-10 2,-3 6,-4 10,-4l0 0 0 0 0 0c1,0 2,0 3,0 1,0 2,1 3,1l30 -32 0 0c15,-15 32,-27 51,-36 19,-9 39,-14 60,-15 1,-3 3,-5 5,-7l0 0c2,-2 5,-3 8,-3 4,0 7,1 10,4 3,2 4,6 4,10 0,4 -1,7 -4,10 -2,3 -6,4 -10,4 -3,0 -6,-1 -8,-2l0 0c-2,-1 -4,-3 -5,-6 -19,1 -38,6 -56,14 -17,8 -34,19 -47,33l-30 32c0,1 0,1 1,2 0,1 0,2 0,3 0,4 -1,7 -4,10 -2,3 -6,4 -10,4 -1,0 -2,0 -2,0 -1,0 -1,0 -2,0l-18 20 -100 107c0,1 1,2 1,2 0,1 0,2 0,3 0,4 -1,7 -4,10zm-10 -24l0 0zm-143 -150c-2,3 -6,4 -10,4 -1,0 -2,0 -3,0 -1,0 -2,-1 -3,-1 -11,12 -20,26 -27,41 -6,15 -9,31 -9,49 0,14 3,28 7,41 5,13 11,25 20,36 1,1 1,2 1,3 0,1 -1,2 -2,3l0 0 0 0c-1,0 -1,1 -2,1 -1,0 -1,0 -2,0 -1,0 -1,0 -2,-1l0 0c-1,0 -1,-1 -2,-1 -9,-12 -16,-25 -21,-39 -5,-14 -8,-29 -8,-44 0,-19 3,-36 10,-53 7,-17 17,-32 29,-45 0,-1 -1,-2 -1,-2 0,-1 0,-2 0,-3 0,-4 1,-7 4,-10 2,-3 6,-4 10,-4l0 0 0 0 0 0c4,0 7,1 10,4 3,2 4,6 4,10l0 0 0 0 0 0c0,4 -1,7 -4,10zm-29 178l0 0zm-3 -2l0 0zm20 -76c-1,2 -3,4 -5,5 3,23 15,44 32,58 17,14 39,23 62,23 6,0 13,-1 19,-2 6,-1 12,-3 18,-6 1,0 2,-1 3,0l0 0c1,0 2,1 3,2l0 0c0,1 1,1 1,2 0,1 0,1 0,2 0,1 -1,1 -1,2 0,1 -1,1 -2,1 -6,3 -13,5 -20,6 -7,1 -14,2 -21,2 -26,0 -51,-9 -69,-25l0 0c-19,-16 -32,-39 -35,-65 -3,-1 -5,-3 -7,-5 -2,-2 -3,-5 -3,-8 0,-4 1,-7 4,-10 2,-3 6,-4 10,-4 4,0 7,1 10,4 3,2 4,6 4,10 0,3 -1,5 -2,7zm-12 -2l0 0c1,0 3,-1 3,-1 1,-1 1,-2 1,-4l0 0 0 0 0 0c0,-1 -1,-3 -1,-3 -1,-1 -2,-1 -4,-1l0 0 0 0 0 0c-1,0 -3,1 -3,1 -1,1 -1,2 -1,4l0 0 0 0 0 0c0,1 1,3 1,3 1,1 2,1 4,1l0 0zm0 0l0 0zm210 -37c-2,3 -6,4 -10,4 -4,0 -7,-1 -10,-4 -3,-2 -4,-6 -4,-10 0,-1 0,-2 0,-3 0,-1 0,-2 1,-2l-3 -4c-2,-2 -4,-4 -6,-6 -3,-3 -7,-7 -10,-10 -4,-3 -7,-7 -11,-10 -8,-6 -18,-11 -28,-15 -10,-3 -20,-5 -31,-5 -20,0 -38,7 -53,17 -16,11 -28,27 -34,45 0,1 -1,2 -2,3 -1,1 -2,1 -3,1l-1 0c-1,0 -1,0 -2,-1 -1,0 -1,-1 -1,-2 0,-1 -1,-1 -1,-2 0,-1 0,-1 0,-2 7,-20 21,-38 38,-50 17,-12 37,-19 59,-19 13,0 26,2 38,7 12,5 23,11 33,20l0 0 25 24c1,0 2,-1 2,-1 1,0 2,0 3,0 4,0 7,1 10,4 3,2 4,6 4,10 0,4 -1,7 -4,10zm-199 -1l0 0zm443 189c2,-1 5,-2 8,-2l0 0 0 0 0 0c4,0 7,1 10,4 3,2 4,6 4,10l0 0 0 0 0 0c0,4 -1,7 -4,10 -2,3 -6,4 -10,4 -3,0 -6,-1 -8,-3 -2,-2 -4,-4 -5,-7 -18,-1 -35,-5 -51,-11 -16,-6 -32,-15 -45,-27 -5,-4 -9,-8 -14,-13l-2 -2 -18 -18c-1,0 -2,1 -3,1 -1,0 -2,0 -3,0l0 0 0 0 0 0c-4,0 -7,-1 -10,-4 -3,-2 -4,-6 -4,-10l0 0c0,-4 1,-7 4,-10 2,-3 6,-4 10,-4 4,0 7,1 10,4 3,2 4,6 4,10l0 0c0,1 0,2 0,3 0,1 0,2 -1,2l21 21 0 0c1,1 2,2 4,3 1,1 2,2 4,3 13,12 28,22 45,28 16,7 34,11 51,12 1,-2 3,-4 5,-6zm8 7l0 0 0 0c-1,0 -3,1 -3,1 -1,1 -1,2 -1,4l0 0 0 0c0,1 1,3 1,3 1,1 2,1 4,1l0 0 0 0c1,0 3,-1 3,-1 1,-1 1,-2 1,-4 0,-1 -1,-3 -1,-3 -1,-1 -2,-1 -4,-1l0 0zm-5 5l0 0zm5 5l0 0zm0 -341l0 0c-1,0 -3,1 -3,1 -1,1 -1,2 -1,4l0 0 0 0 0 0c0,1 1,3 1,3 1,1 2,1 4,1 1,0 3,-1 3,-1 1,-1 1,-2 1,-4l0 0c0,-1 -1,-3 -1,-3 -1,-1 -2,-1 -4,-1l0 0zm0 0l0 0zm-104 255c2,-3 6,-4 10,-4l0 0 0 0 0 0c4,0 7,1 10,4 3,2 4,6 4,10l0 0 0 0 0 0c0,1 0,2 0,3 0,1 0,2 -1,2 4,3 9,7 13,9 5,3 10,6 15,8 8,4 17,6 26,8 9,2 18,3 27,3 9,0 18,-1 27,-3 9,-2 17,-5 25,-9l0 0c1,0 2,-1 3,0 1,0 2,1 3,2l0 0c1,1 1,1 1,2 0,1 0,1 0,2 0,1 0,1 -1,2 0,1 -1,1 -2,1 -9,4 -18,7 -27,9 -9,2 -19,3 -29,3 -10,0 -20,-1 -29,-3 -10,-2 -19,-5 -28,-9 -6,-2 -11,-5 -16,-9 -5,-3 -10,-7 -15,-10 -1,0 -2,1 -3,1 -1,0 -2,0 -3,0 -4,0 -7,-1 -10,-4 -3,-2 -4,-6 -4,-10 0,-4 1,-7 4,-10zm162 32l0 0zm1 2l0 0zm0 2l0 0zm-153 -32c-1,0 -3,1 -3,1 -1,1 -1,2 -1,4 0,1 1,3 1,3 1,1 2,1 4,1 1,0 3,-1 3,-2 1,-1 1,-2 1,-4 0,-1 -1,-3 -2,-3 -1,-1 -2,-1 -4,-1l0 0zm258 -97l0 0 0 0c-1,0 -3,1 -4,2 -1,1 -1,2 -1,4l0 0 0 0 0 0c0,1 1,3 2,4 1,1 2,1 4,1l0 0c1,0 3,-1 4,-2 1,-1 1,-2 1,-4l0 0 0 0 0 0c0,-1 -1,-3 -2,-4 -1,-1 -2,-1 -4,-1l0 0 0 0zm0 10l0 0zm-89 88c2,-3 6,-4 10,-4 1,0 2,0 3,0 1,0 2,1 3,1 11,-12 20,-26 27,-41 6,-15 9,-31 9,-49 0,-14 -3,-28 -7,-41 -5,-13 -11,-25 -20,-36l0 0c-1,-1 -1,-2 -1,-3 0,-1 1,-2 2,-3l0 0c1,0 1,-1 2,-1 1,0 1,0 2,0 1,0 1,0 2,1l0 0c1,0 1,1 2,1 9,12 16,25 21,39 5,14 8,29 8,44 0,19 -3,36 -10,53 -7,17 -17,32 -29,45 0,1 1,2 1,2l0 0c0,1 0,2 0,3 0,4 -1,7 -4,10 -2,3 -6,4 -10,4 -4,0 -7,-1 -10,-4 -3,-2 -4,-6 -4,-10 0,-4 1,-7 4,-10zm12 -100c1,-2 3,-4 5,-5 -3,-23 -15,-44 -32,-58 -17,-14 -39,-23 -62,-23 -6,0 -13,1 -19,2 -6,1 -12,3 -18,6 -1,0 -2,1 -3,0l0 0c-1,0 -2,-1 -3,-2l0 0 0 0 0 0c0,-1 -1,-1 -1,-2 0,-1 0,-1 0,-2l0 0c0,-1 1,-1 1,-2 0,-1 1,-1 2,-1 6,-3 13,-5 20,-6 7,-1 14,-2 21,-2 26,0 51,9 69,25 19,16 32,39 35,65 3,1 5,3 7,5 2,2 3,5 3,8 0,4 -1,7 -4,10 -2,3 -6,4 -10,4 -4,0 -7,-1 -10,-4 -3,-2 -4,-6 -4,-10 0,-3 1,-5 2,-7zm12 2c-1,0 -3,1 -3,1 -1,1 -1,2 -1,4l0 0 0 0 0 0c0,1 1,3 2,3 1,1 2,1 4,1l0 0 0 0 0 0c1,0 3,-1 3,-1 1,-1 1,-2 1,-4l0 0 0 0 0 0c0,-1 -1,-3 -1,-3 -1,-1 -2,-1 -4,-1l0 0 0 0zm-200 33l0 0 0 0c4,0 7,1 10,4 3,2 4,6 4,10l0 0 0 0 0 0c0,1 0,2 0,3l0 0c0,1 0,2 -1,2 1,1 2,2 4,4 2,2 4,4 5,6 3,3 7,7 10,10 4,3 7,7 11,10 8,6 18,11 28,15 10,3 20,5 31,5 20,0 38,-7 53,-17 16,-11 28,-27 34,-45 0,-1 1,-2 2,-3 1,-1 2,-1 3,-1l0 0 1 0c1,0 1,0 2,1 1,0 1,1 1,2 0,1 1,1 1,2 0,1 0,1 0,2 -7,20 -21,38 -38,50 -17,12 -37,19 -59,19 -13,0 -26,-2 -38,-7 -12,-5 -23,-11 -33,-20l0 0 -25 -24c-1,0 -2,1 -2,1 -1,0 -2,0 -3,0l0 0c-4,0 -7,-1 -10,-4 -3,-2 -4,-6 -4,-10l0 0 0 0 0 0c0,-4 1,-7 4,-10 2,-3 6,-4 10,-4l0 0zm0 28l0 0z"/>
  </g>
 </g>
</svg>
